%TF.GenerationSoftware,KiCad,Pcbnew,7.0.9*%
%TF.CreationDate,2024-10-27T03:10:17-07:00*%
%TF.ProjectId,ps4snapbackcaps,70733473-6e61-4706-9261-636b63617073,rev?*%
%TF.SameCoordinates,Original*%
%TF.FileFunction,Profile,NP*%
%FSLAX46Y46*%
G04 Gerber Fmt 4.6, Leading zero omitted, Abs format (unit mm)*
G04 Created by KiCad (PCBNEW 7.0.9) date 2024-10-27 03:10:17*
%MOMM*%
%LPD*%
G01*
G04 APERTURE LIST*
%TA.AperFunction,Profile*%
%ADD10C,0.100000*%
%TD*%
G04 APERTURE END LIST*
D10*
X91025000Y-68650000D02*
X90050000Y-67650000D01*
X79950000Y-80350000D02*
X79950000Y-78950000D01*
X91150000Y-68775000D02*
X92150000Y-69775000D01*
X92200000Y-75725000D02*
X91050000Y-76875000D01*
X90050000Y-80350000D02*
X91050000Y-79350000D01*
X82400000Y-67650000D02*
X79950000Y-67650000D01*
X91050000Y-79350000D02*
X91050000Y-77150000D01*
X93850000Y-71475000D02*
X93150000Y-70775000D01*
X87500000Y-65100000D02*
X84950000Y-65100000D01*
X90050000Y-67650000D02*
X87500000Y-65100000D01*
X82400000Y-67650000D02*
X84950000Y-65100000D01*
X79950000Y-67650000D02*
X79950000Y-69050000D01*
X93150000Y-70775000D02*
X92150000Y-69775000D01*
X79950000Y-80350000D02*
X90050000Y-80350000D01*
X93850000Y-71475000D02*
X93900000Y-74025000D01*
X93200000Y-74725000D02*
X92200000Y-75725000D01*
X91150000Y-68775000D02*
X91025000Y-68650000D01*
X79950000Y-69050000D02*
X80950000Y-70050000D01*
X79950000Y-78950000D02*
X80950000Y-77950000D01*
X80950000Y-70050000D02*
X80950000Y-77950000D01*
X91050000Y-76875000D02*
X91050000Y-77150000D01*
X93900000Y-74025000D02*
X93200000Y-74725000D01*
M02*
